<?xml version="1.0" standalone="no"?>
<!DOCTYPE svg PUBLIC "-//W3C//DTD SVG 20010904//EN"
 "http://www.w3.org/TR/2001/REC-SVG-20010904/DTD/svg10.dtd">
<svg version="1.0" xmlns="http://www.w3.org/2000/svg"
 width="256.000000pt" height="85.000000pt" viewBox="0 0 256.000000 85.000000"
 preserveAspectRatio="xMidYMid meet">

    <g transform="translate(0.000000,85.000000) scale(0.100000,-0.100000)"
    fill="#000000" stroke="none">
    <path d="M52 788 c-17 -17 -17 -709 0 -726 17 -17 2439 -17 2456 0 17 17 17
    709 0 726 -17 17 -2439 17 -2456 0z m708 -363 l0 -355 -350 0 -350 0 0 355 0
    355 350 0 350 0 0 -355z m596 93 c7 -7 14 -22 16 -33 5 -29 -37 -34 -45 -5 -4
    17 -12 21 -34 18 -43 -5 -35 -30 16 -45 56 -16 71 -29 71 -63 0 -43 -44 -73
    -95 -67 -40 6 -75 35 -75 63 0 21 33 17 53 -6 17 -21 34 -24 61 -14 30 12 16
    34 -28 45 -25 6 -52 19 -61 29 -24 26 -16 72 15 88 28 14 87 9 106 -10z m84
    -8 c0 -13 -7 -20 -20 -20 -13 0 -20 7 -20 20 0 13 7 20 20 20 13 0 20 -7 20
    -20z m460 -1 c0 -15 -5 -20 -22 -17 -34 5 -37 38 -4 38 20 0 26 -5 26 -21z
    m-460 -104 c0 -68 -2 -75 -20 -75 -18 0 -20 7 -20 75 0 68 2 75 20 75 18 0 20
    -7 20 -75z m160 -10 c0 -72 -3 -88 -20 -105 -37 -37 -120 -19 -120 26 0 8 7
    14 17 14 15 0 15 1 0 18 -10 11 -17 35 -17 57 0 56 22 75 87 75 l53 0 0 -85z
    m138 73 c7 -7 12 -39 12 -75 0 -56 -2 -63 -20 -63 -18 0 -20 7 -20 54 0 30 -5
    58 -10 61 -22 13 -40 -17 -40 -66 0 -42 -3 -49 -20 -49 -18 0 -20 7 -20 75 l0
    75 53 0 c29 0 58 -5 65 -12z m162 -63 c0 -73 -1 -75 -25 -75 -24 0 -25 2 -25
    68 0 74 3 82 32 82 16 0 18 -9 18 -75z m140 56 c5 -11 10 -45 10 -75 0 -53 -1
    -56 -25 -56 -22 0 -24 4 -27 58 -2 43 -7 57 -18 57 -11 0 -16 -14 -18 -57 -3
    -54 -5 -58 -27 -58 -24 0 -25 2 -25 68 0 38 2 71 5 74 3 3 30 6 60 7 44 1 56
    -3 65 -18z"/>
    <path d="M385 605 c-5 -2 -22 -6 -37 -9 -32 -7 -98 -62 -98 -81 0 -8 10 -21
    22 -29 21 -15 24 -14 53 14 38 37 84 47 124 27 28 -14 31 -13 50 7 12 12 21
    25 21 29 0 18 -107 51 -135 42z"/>
    <path d="M410 420 c0 -29 1 -30 50 -30 52 0 58 -6 39 -42 -9 -16 -7 -24 9 -40
    19 -20 19 -20 42 12 14 19 25 53 28 81 l5 49 -87 0 -86 0 0 -30z"/>
    <path d="M1512 438 c-17 -17 -15 -67 4 -75 26 -10 50 22 38 54 -11 31 -25 38
    -42 21z"/>
    <path d="M1500 319 c0 -10 30 -20 41 -13 18 11 9 24 -16 22 -14 -1 -25 -5 -25
    -9z"/>
    </g>
</svg>
